<?xml version="1.0" encoding="UTF-8" standalone="no"?>
<svg
   xmlns:dc="http://purl.org/dc/elements/1.1/"
   xmlns:cc="http://creativecommons.org/ns#"
   xmlns:rdf="http://www.w3.org/1999/02/22-rdf-syntax-ns#"
   xmlns:svg="http://www.w3.org/2000/svg"
   xmlns="http://www.w3.org/2000/svg"
   xmlns:sodipodi="http://sodipodi.sourceforge.net/DTD/sodipodi-0.dtd"
   xmlns:inkscape="http://www.inkscape.org/namespaces/inkscape"
   id="svg234538"
   viewBox="0 0 652.95032 121.33673"
   height="121.33673"
   width="652.95032"
   version="1.1"
   sodipodi:docname="logotype.svg"
   inkscape:version="1.0.2 (e86c870879, 2021-01-15)"
   inkscape:export-filename="/home/ivan/Documents/Design/personal/logotype.png"
   inkscape:export-xdpi="96"
   inkscape:export-ydpi="96">
  <sodipodi:namedview
     pagecolor="#ffffff"
     bordercolor="#666666"
     borderopacity="1"
     objecttolerance="10"
     gridtolerance="10"
     guidetolerance="10"
     inkscape:pageopacity="0"
     inkscape:pageshadow="2"
     inkscape:window-width="1916"
     inkscape:window-height="1032"
     id="namedview47"
     showgrid="false"
     inkscape:zoom="1.0017405"
     inkscape:cx="301.12266"
     inkscape:cy="24.99566"
     inkscape:window-x="0"
     inkscape:window-y="0"
     inkscape:window-maximized="1"
     inkscape:current-layer="logo-center"
     inkscape:document-rotation="0" />
  <metadata
     id="metadata234544">
    <rdf:rdf>
      <cc:work
         rdf:about="">
        <dc:format>image/svg+xml</dc:format>
        <dc:type
           rdf:resource="http://purl.org/dc/dcmitype/StillImage" />
      </cc:work>
    </rdf:rdf>
    <rdf:RDF>
      <cc:Work
         rdf:about="">
        <dc:format>image/svg+xml</dc:format>
        <dc:type
           rdf:resource="http://purl.org/dc/dcmitype/StillImage" />
        <dc:title />
      </cc:Work>
    </rdf:RDF>
  </metadata>
  <defs
     id="defs234542" />
  <linearGradient
     spreadMethod="pad"
     y2="0.30000001"
     x2="-0.1"
     y1="1.2"
     x1="0.30000001"
     id="3d_gradient2-logo-ed4e210e-2592-4a6c-9172-1e2d736853db">
    <stop
       id="stop234519"
       stop-opacity="1"
       stop-color="#ffffff"
       offset="0%" />
    <stop
       id="stop234521"
       stop-opacity="1"
       stop-color="#000000"
       offset="100%" />
  </linearGradient>
  <linearGradient
     gradientTransform="rotate(-30)"
     spreadMethod="pad"
     y2="0.30000001"
     x2="-0.1"
     y1="1.2"
     x1="0.30000001"
     id="3d_gradient3-logo-ed4e210e-2592-4a6c-9172-1e2d736853db">
    <stop
       id="stop234524"
       stop-opacity="1"
       stop-color="#ffffff"
       offset="0%" />
    <stop
       id="stop234526"
       stop-opacity="1"
       stop-color="#cccccc"
       offset="50%" />
    <stop
       id="stop234528"
       stop-opacity="1"
       stop-color="#000000"
       offset="100%" />
  </linearGradient>
  <g
     id="logo-group"
     inkscape:export-xdpi="96"
     inkscape:export-ydpi="96"
     transform="translate(-200.89891,-329.87277)">
    <g
       id="logo-center"
       transform="translate(-124.64191)">
      <g
         id="slogan"
         style="font-style:normal;font-weight:200;font-size:32px;line-height:1;font-family:Roboto;font-variant-ligatures:none;text-align:center;text-anchor:middle;fill:#666666"
         transform="translate(39.283611,3.9999978)">
        <text
           xml:space="preserve"
           style="font-style:normal;font-variant:normal;font-weight:300;font-stretch:normal;font-size:40px;line-height:1.25;font-family:Montserrat;-inkscape-font-specification:'Montserrat Light';letter-spacing:3.5px;word-spacing:0px;fill:#666666;fill-opacity:1;stroke:none"
           x="730.1778"
           y="440.4115"
           id="text872"
           inkscape:label="text872"><tspan
             sodipodi:role="line"
             id="tspan870"
             x="731.9278"
             y="440.4115"
             style="font-style:normal;font-variant:normal;font-weight:normal;font-stretch:normal;font-size:40px;font-family:'Share Tech';-inkscape-font-specification:'Share Tech';fill:#666666"
             dx="0">Information Engineer</tspan></text>
      </g>
      <g
         id="title"
         style="font-style:normal;font-weight:200;font-size:72px;line-height:1;font-family:Montserrat;font-variant-ligatures:none;text-align:center;text-anchor:middle"
         transform="translate(-1.2769614)">
        <g
           id="g909"
           style="display:none">
          <path
             id="path234581"
             style="font-style:normal;font-weight:200;font-size:72px;line-height:1;font-family:Montserrat;font-variant-ligatures:none;text-align:center;text-anchor:middle"
             d="m 319.77069,-50.328 h 1.44 V 0 h -1.44 z"
             stroke-width="6.8"
             stroke-linejoin="miter"
             stroke-miterlimit="2"
             fill="#030303"
             stroke="#030303"
             transform="matrix(0.83,0,0,0.83,218.87414,380.82702)" />
          <path
             id="path234583"
             style="font-style:normal;font-weight:200;font-size:72px;line-height:1;font-family:Montserrat;font-variant-ligatures:none;text-align:center;text-anchor:middle"
             d="m 331.10281,-37.224 h 1.656 l 14.4,35.568 14.328,-35.568 h 1.728 L 347.95081,0 h -1.584 z"
             stroke-width="6.8"
             stroke-linejoin="miter"
             stroke-miterlimit="2"
             fill="#030303"
             stroke="#030303"
             transform="matrix(0.83,0,0,0.83,235.47414,380.82702)" />
          <path
             id="path234585"
             style="font-style:normal;font-weight:200;font-size:72px;line-height:1;font-family:Montserrat;font-variant-ligatures:none;text-align:center;text-anchor:middle"
             d="m 394.77331,0 -0.072,-8.424 q -2.448,4.248 -6.48,6.336 -3.96,2.088 -9.144,2.088 -5.328,0 -8.712,-3.024 -3.384,-3.024 -3.384,-7.704 0,-4.536 3.672,-7.056 3.744,-2.52 10.152,-2.52 h 13.824 v -4.536 q -0.072,-5.256 -3.096,-8.064 -2.952,-2.88 -8.712,-2.88 -3.528,0 -6.696,1.368 -3.096,1.296 -6.336,3.816 l -0.864,-1.152 q 6.912,-5.472 13.896,-5.472 6.336,0 9.72,3.312 3.456,3.312 3.528,9.072 l 0.144,24.84 z m -15.624,-1.44 q 5.616,0 9.504,-2.448 3.888,-2.448 6.048,-7.776 l -0.072,-7.2 h -13.824 q -5.904,0 -9.144,2.16 -3.24,2.088 -3.24,5.976 0,4.176 2.88,6.768 2.952,2.52 7.848,2.52 z"
             stroke-width="6.8"
             stroke-linejoin="miter"
             stroke-miterlimit="2"
             fill="#030303"
             stroke="#030303"
             transform="matrix(0.83,0,0,0.83,252.07414,380.82702)" />
          <path
             id="path234587"
             style="font-style:normal;font-weight:200;font-size:72px;line-height:1;font-family:Montserrat;font-variant-ligatures:none;text-align:center;text-anchor:middle"
             d="m 428.00131,-37.224 q 6.912,0 10.728,3.888 3.888,3.888 3.888,10.8 V 0 h -1.44 v -22.536 q 0,-6.264 -3.528,-9.72 -3.456,-3.528 -9.648,-3.528 -6.912,0.144 -11.016,4.248 -4.104,4.104 -4.68,11.304 V 0 h -1.44 v -37.224 h 1.44 v 10.512 q 1.8,-4.968 5.832,-7.704 4.032,-2.736 9.864,-2.808 z"
             stroke-width="6.8"
             stroke-linejoin="miter"
             stroke-miterlimit="2"
             fill="#030303"
             stroke="#030303"
             transform="matrix(0.83,0,0,0.83,268.67414,380.82702)" />
          <path
             id="path234589"
             style="font-style:normal;font-weight:200;font-size:72px;line-height:1;font-family:Montserrat;font-variant-ligatures:none;text-align:center;text-anchor:middle"
             d="m 517.74256,0 -7.056,-15.336 h -30.528 L 473.17456,0 h -1.728 l 23.04,-50.328 h 1.584 L 519.39856,0 Z m -36.936,-16.776 h 29.16 l -14.688,-31.896 z"
             stroke-width="6.8"
             stroke-linejoin="miter"
             stroke-miterlimit="2"
             fill="#030303"
             stroke="#030303"
             transform="matrix(0.83,0,0,0.83,285.27414,380.82702)" />
          <path
             id="path234591"
             style="font-style:normal;font-weight:200;font-size:72px;line-height:1;font-family:Montserrat;font-variant-ligatures:none;text-align:center;text-anchor:middle"
             d="m 528.36594,-53.424 h 1.44 V 0 h -1.44 z"
             stroke-width="6.8"
             stroke-linejoin="miter"
             stroke-miterlimit="2"
             fill="#030303"
             stroke="#030303"
             transform="matrix(0.83,0,0,0.83,301.87414,380.82702)" />
          <path
             id="path234593"
             style="font-style:normal;font-weight:200;font-size:72px;line-height:1;font-family:Montserrat;font-variant-ligatures:none;text-align:center;text-anchor:middle"
             d="m 538.80594,-37.224 h 1.656 l 14.4,35.568 14.328,-35.568 h 1.728 L 555.65394,0 h -1.584 z"
             stroke-width="6.8"
             stroke-linejoin="miter"
             stroke-miterlimit="2"
             fill="#030303"
             stroke="#030303"
             transform="matrix(0.83,0,0,0.83,318.47414,380.82702)" />
          <path
             id="path234595"
             style="font-style:normal;font-weight:200;font-size:72px;line-height:1;font-family:Montserrat;font-variant-ligatures:none;text-align:center;text-anchor:middle"
             d="m 602.47644,0 -0.072,-8.424 q -2.448,4.248 -6.48,6.336 -3.96,2.088 -9.144,2.088 -5.328,0 -8.712,-3.024 -3.384,-3.024 -3.384,-7.704 0,-4.536 3.672,-7.056 3.744,-2.52 10.152,-2.52 h 13.824 v -4.536 q -0.072,-5.256 -3.096,-8.064 -2.952,-2.88 -8.712,-2.88 -3.528,0 -6.696,1.368 -3.096,1.296 -6.336,3.816 l -0.864,-1.152 q 6.912,-5.472 13.896,-5.472 6.336,0 9.72,3.312 3.456,3.312 3.528,9.072 l 0.144,24.84 z m -15.624,-1.44 q 5.616,0 9.504,-2.448 3.888,-2.448 6.048,-7.776 l -0.072,-7.2 h -13.824 q -5.904,0 -9.144,2.16 -3.24,2.088 -3.24,5.976 0,4.176 2.88,6.768 2.952,2.52 7.848,2.52 z"
             stroke-width="6.8"
             stroke-linejoin="miter"
             stroke-miterlimit="2"
             fill="#030303"
             stroke="#030303"
             transform="matrix(0.83,0,0,0.83,335.07414,380.82702)" />
          <path
             id="path234597"
             style="font-style:normal;font-weight:200;font-size:72px;line-height:1;font-family:Montserrat;font-variant-ligatures:none;text-align:center;text-anchor:middle"
             d="m 620.00844,-27.072 q 1.656,-4.752 5.328,-7.416 3.672,-2.664 8.928,-2.736 v 1.44 q -6.336,0.144 -10.08,4.248 -3.672,4.032 -4.176,11.16 V 0 h -1.44 v -37.224 h 1.44 z"
             stroke-width="6.8"
             stroke-linejoin="miter"
             stroke-miterlimit="2"
             fill="#030303"
             stroke="#030303"
             transform="matrix(0.83,0,0,0.83,351.67414,380.82702)" />
          <path
             id="path234599"
             style="font-style:normal;font-weight:200;font-size:72px;line-height:1;font-family:Montserrat;font-variant-ligatures:none;text-align:center;text-anchor:middle"
             d="m 656.64856,-1.44 q 4.032,0 7.416,-1.368 3.456,-1.44 5.76,-4.032 l 1.008,1.008 q -2.592,2.808 -6.264,4.32 -3.672,1.512 -7.92,1.512 -5.112,0 -9.216,-2.376 -4.032,-2.448 -6.408,-6.696 -2.304,-4.248 -2.304,-9.576 0,-5.328 2.304,-9.576 2.376,-4.248 6.408,-6.624 4.104,-2.376 9.216,-2.376 5.112,0 9,2.376 3.96,2.376 6.12,6.624 2.16,4.248 2.16,9.576 h -33.768 q 0,4.968 2.088,8.928 2.16,3.888 5.904,6.12 3.744,2.16 8.496,2.16 z m 0,-34.344 q -4.536,0 -8.208,2.016 -3.6,1.944 -5.76,5.544 -2.16,3.528 -2.448,8.136 h 32.256 q -0.504,-7.056 -4.752,-11.376 -4.248,-4.32 -11.088,-4.32 z"
             stroke-width="6.8"
             stroke-linejoin="miter"
             stroke-miterlimit="2"
             fill="#030303"
             stroke="#030303"
             transform="matrix(0.83,0,0,0.83,368.27414,380.82702)" />
          <path
             id="path234601"
             style="font-style:normal;font-weight:200;font-size:72px;line-height:1;font-family:Montserrat;font-variant-ligatures:none;text-align:center;text-anchor:middle"
             d="m 681.85419,-37.224 27.432,0.072 v 1.8 l -26.64,33.912 27.144,0.072 v 1.44 L 681.20619,0 v -1.8 l 26.64,-33.912 -25.992,-0.072 z"
             stroke-width="6.8"
             stroke-linejoin="miter"
             stroke-miterlimit="2"
             fill="#030303"
             stroke="#030303"
             transform="matrix(0.83,0,0,0.83,384.87414,380.82702)" />
        </g>
        <text
           xml:space="preserve"
           style="font-style:normal;font-variant:normal;font-weight:bold;font-stretch:normal;font-size:74.6667px;line-height:1.25;font-family:'Share Tech Mono';-inkscape-font-specification:'Share Tech Mono Bold';letter-spacing:3px;display:inline;fill:#000000;fill-opacity:1;stroke:none;stroke-width:2.00089"
           x="721.263"
           y="393.38412"
           id="text892"><tspan
             sodipodi:role="line"
             id="tspan890"
             x="722.763"
             y="393.38412"
             style="font-style:normal;font-variant:normal;font-weight:bold;font-stretch:normal;font-size:74.6667px;font-family:'Share Tech Mono';-inkscape-font-specification:'Share Tech Mono Bold';stroke-width:2.00089">Ivan Alvarez</tspan></text>
      </g>
      <g
         aria-label="{IA}"
         id="text44"
         style="font-style:normal;font-weight:normal;font-size:96px;line-height:1.25;font-family:sans-serif;display:inline;fill:#000000;fill-opacity:1;stroke:none">
        <path
           d="m 325.54082,383.44164 q 3.78791,0 5.20837,-1.54898 1.51516,-1.67806 1.51516,-6.71224 v -29.55969 q 0,-8.64847 2.36744,-12.13367 2.36744,-3.61429 7.9546,-3.61429 h 6.15535 v 9.03571 h -4.82958 q -2.27274,0 -3.31442,1.03266 -0.94697,0.90357 -0.94697,3.74336 v 31.49592 q 0,6.45408 -2.36744,10.58469 -2.27275,4.13061 -5.68186,4.9051 3.40911,0.51633 5.68186,4.64694 2.36744,4.13061 2.36744,10.5847 v 31.49591 q 0,2.8398 0.94697,3.74337 1.04168,1.03265 3.31442,1.03265 h 4.82958 v 9.03572 h -6.15535 q -5.58716,0 -7.9546,-3.61429 -2.36744,-3.4852 -2.36744,-12.13367 v -29.55969 q 0,-5.03419 -1.51516,-6.58317 -1.42046,-1.67806 -5.20837,-1.67806 z"
           style="font-style:normal;font-variant:normal;font-weight:normal;font-stretch:normal;font-size:96px;font-family:'Share Tech Mono';-inkscape-font-specification:'Share Tech Mono';display:inline;fill:#000000;stroke-width:1.15168"
           id="path46" />
        <path
           d="m 446.15162,397.64062 q -3.7879,0 -5.30307,1.67806 -1.42046,1.54898 -1.42046,6.58317 v 29.55969 q 0,8.64847 -2.36744,12.13367 -2.36744,3.61429 -7.9546,3.61429 h -6.15535 v -9.03572 h 4.82958 q 2.27274,0 3.21972,-1.03265 1.04167,-0.90357 1.04167,-3.74337 v -31.49591 q 0,-6.45409 2.27275,-10.5847 2.36744,-4.13061 5.77655,-4.64694 -3.40911,-0.77449 -5.77655,-4.9051 -2.27275,-4.13061 -2.27275,-10.58469 V 343.6845 q 0,-2.83979 -1.04167,-3.74336 -0.94698,-1.03266 -3.21972,-1.03266 h -4.82958 v -9.03571 h 6.15535 q 5.58716,0 7.9546,3.61429 2.36744,3.4852 2.36744,12.13367 v 29.55969 q 0,5.03418 1.42046,6.71224 1.51517,1.54898 5.30307,1.54898 z"
           style="font-style:normal;font-variant:normal;font-weight:normal;font-stretch:normal;font-size:96px;font-family:'Share Tech Mono';-inkscape-font-specification:'Share Tech Mono';fill:#000000;stroke-width:1.15168"
           id="path52" />
      </g>
      <g
         id="g1960"
         transform="matrix(-0.00454069,0.55542696,-0.55542696,-0.00454069,771.02479,134.00566)"
         style="display:inline">
        <g
           id="g1971"
           transform="rotate(-156.05092,463.51065,691.55251)">
          <g
             id="g1964">
            <path
               id="rect1908"
               style="fill:#000000;stroke:none;stroke-width:8.4"
               d="M 534.98699,694.48117 H 426.2116 v 27.80859 h 108.77539 z" />
            <path
               id="path1921"
               style="fill:#000000;stroke:none;stroke-width:7.88021"
               d="m 426.2116,660.53585 -0.03,26.95927 108.77452,-0.10664 0.03,-26.95927 z" />
          </g>
          <path
             id="path1910"
             style="fill:#000000;stroke:none;stroke-width:7.47235"
             inkscape:transform-center-x="8.5978181"
             inkscape:transform-center-y="-0.11734824"
             d="m 389.56099,700.84075 v -17.36738 l -15.03922,8.81922 z" />
          <path
             id="rect1926"
             style="fill:#000000;stroke:none;stroke-width:8.04597"
             d="m 544.0189,667.10881 v 2.92373 41.68962 2.88727 h 3.63508 c 0.17261,0.0153 0.3416,0.0364 0.52026,0.0364 0.17897,0 0.34964,-0.0212 0.52253,-0.0364 2.05068,-0.18147 3.63282,-1.3936 3.63282,-2.88727 v -41.68962 c 0,-1.49365 -1.58219,-2.7042 -3.63282,-2.88569 v -0.0381 h -0.52253 z" />
        </g>
      </g>
    </g>
  </g>
</svg>
